<?xml version="1.0" encoding="UTF-8"?>
<!DOCTYPE svg PUBLIC "-//W3C//DTD SVG 1.1//EN" "http://www.w3.org/Graphics/SVG/1.1/DTD/svg11.dtd">
<!-- Creator: CorelDRAW X5 -->
<svg xmlns="http://www.w3.org/2000/svg" xml:space="preserve" width="217px" height="250px" style="shape-rendering:geometricPrecision; text-rendering:geometricPrecision; image-rendering:optimizeQuality; fill-rule:evenodd; clip-rule:evenodd"
viewBox="0 0 2550 3300"
 xmlns:xlink="http://www.w3.org/1999/xlink">
 <defs>
  <style type="text/css">
   <![CDATA[
    .str1 {stroke:#147C36;stroke-width:0.9}
    .str0 {stroke:#147C36;stroke-width:72;stroke-linejoin:round}
    .fil0 {fill:none}
    .fil5 {fill:none;fill-rule:nonzero}
    .fil1 {fill:#45C46F}
    .fil3 {fill:#9DF5B6}
    .fil2 {fill:white}
    .fil4 {fill:white;fill-rule:nonzero}
   ]]>
  </style>
 </defs>
 <g id="Layer_x0020_1">
  <metadata id="CorelCorpID_0Corel-Layer"/>
  <g>
   <polygon class="fil0 str0" points="1326,979 1584,1128 1842,1277 1842,1575 1842,1874 1584,2023 1326,2172 1068,2023 810,1874 810,1575 810,1277 1068,1128 "/>
   <polygon id="1" class="fil1" points="1326,979 1584,1128 1842,1277 1842,1575 1842,1874 1584,2023 1326,2172 1068,2023 810,1874 810,1575 810,1277 1068,1128 "/>
  </g>
  <g>
   <path class="fil2" d="M1075 1607l-2 10c34,12 75,32 109,49 35,17 73,32 109,49 63,30 54,18 117,-5 26,-9 90,-38 114,-40 6,16 12,35 7,57 -7,30 -5,-8 -16,50 -4,21 -11,30 -1,53 10,24 18,13 40,6 -5,-13 -16,-21 -20,-39 -7,-35 7,-7 7,-42 0,-32 20,-57 -1,-87 -5,-7 -3,2 -1,-8 1,-4 1,-3 5,-4 18,-3 39,-10 51,-20 -41,-13 -84,-31 -124,-47 -31,-12 -94,-40 -124,-47 -27,-6 -222,59 -270,64z"/>
   <path class="fil2" d="M1481 1705c-9,-9 1,-1 -12,-6 -18,9 -50,20 -71,27 -25,9 -51,26 -76,16 -44,-18 -96,-49 -137,-62 -8,25 -14,39 -12,69 81,-6 111,35 146,79 9,-13 41,-36 64,-45 37,-14 58,-9 100,-6l-2 -72z"/>
   <path class="fil2" d="M1481 1705l-1 -9c-23,-3 -2,-1 -11,2 13,5 4,-3 12,6z"/>
   <polygon class="fil2" points="1072,1617 1075,1607 1063,1612 "/>
   <path class="fil2" d="M1538 1669c3,-10 -1,-5 4,-11 -4,1 -4,-1 -5,4 -2,9 -4,1 1,8z"/>
  </g>
  <rect class="fil3" x="939" y="1254" width="774" height="250" rx="28" ry="28"/>
  <path class="fil4" d="M1080 1460c-1,-3 -2,-5 -3,-8 -1,-3 -1,-6 -2,-9 -3,6 -7,10 -13,14 -5,4 -11,6 -19,6 -12,0 -21,-3 -28,-9 -6,-6 -10,-15 -10,-25 0,-11 4,-20 13,-26 9,-6 21,-9 38,-9l17 0 0 -9c0,-6 -1,-10 -4,-13 -3,-3 -7,-5 -13,-5 -5,0 -9,1 -12,4 -3,2 -4,6 -4,10l-30 0 0 -1c-1,-10 4,-18 13,-25 9,-7 21,-11 35,-11 14,0 25,3 33,10 9,7 13,17 13,30l0 47c0,5 0,10 1,15 1,5 2,9 4,14l-31 0zm-28 -21c5,0 10,-1 15,-4 4,-3 7,-6 9,-9l0 -16 -17 0c-7,0 -12,2 -15,5 -3,3 -5,7 -5,12 0,4 1,7 4,9 3,2 6,3 10,3z"/>
  <polygon id="1" class="fil4" points="1162,1460 1131,1460 1131,1295 1162,1295 "/>
  <path id="12" class="fil4" d="M1257 1443c-4,6 -8,11 -13,14 -5,3 -12,5 -19,5 -12,0 -21,-4 -28,-12 -7,-8 -10,-20 -10,-36l0 -69 31 0 0 69c0,8 1,14 4,18 3,4 7,5 12,5 5,0 9,-1 13,-2 3,-2 6,-4 9,-7l0 -83 31 0 0 114 -26 0 -3 -16z"/>
  <path id="123" class="fil4" d="M1338 1345l1 15c4,-5 8,-10 14,-13 6,-3 12,-5 19,-5 7,0 14,2 19,5 5,3 9,8 12,15 4,-6 8,-11 14,-14 6,-3 12,-5 20,-5 11,0 20,4 27,12 7,8 10,20 10,36l0 69 -31 0 0 -69c0,-9 -1,-15 -4,-18 -3,-3 -7,-5 -13,-5 -4,0 -8,1 -11,3 -3,2 -6,5 -8,8 0,1 0,2 0,3 0,1 0,2 0,3l0 75 -31 0 0 -69c0,-8 -1,-14 -4,-18 -3,-3 -7,-5 -13,-5 -4,0 -8,1 -11,2 -3,2 -6,4 -8,7l0 83 -31 0 0 -114 29 0z"/>
  <path id="1234" class="fil4" d="M1525 1345l1 16c4,-6 9,-10 14,-14 6,-3 12,-5 19,-5 12,0 21,4 27,11 6,7 10,19 10,34l0 71 -31 0 0 -71c0,-8 -2,-13 -5,-16 -3,-3 -8,-5 -14,-5 -4,0 -8,1 -11,2 -3,2 -6,4 -8,7l0 83 -31 0 0 -114 29 0z"/>
  <path id="12345" class="fil4" d="M1651 1460l-31 0 0 -114 31 0 0 114zm0 -142l-31 0 0 -23 31 0 0 23z"/>
  <path id="123456" class="fil5 str1" d="M1080 1460c-1,-3 -2,-5 -3,-8 -1,-3 -1,-6 -2,-9 -3,6 -7,10 -13,14 -5,4 -11,6 -19,6 -12,0 -21,-3 -28,-9 -6,-6 -10,-15 -10,-25 0,-11 4,-20 13,-26 9,-6 21,-9 38,-9l17 0 0 -9c0,-6 -1,-10 -4,-13 -3,-3 -7,-5 -13,-5 -5,0 -9,1 -12,4 -3,2 -4,6 -4,10l-30 0 0 -1c-1,-10 4,-18 13,-25 9,-7 21,-11 35,-11 14,0 25,3 33,10 9,7 13,17 13,30l0 47c0,5 0,10 1,15 1,5 2,9 4,14l-31 0zm-28 -21c5,0 10,-1 15,-4 4,-3 7,-6 9,-9l0 -16 -17 0c-7,0 -12,2 -15,5 -3,3 -5,7 -5,12 0,4 1,7 4,9 3,2 6,3 10,3z"/>
  <polygon id="1234567" class="fil5 str1" points="1162,1460 1131,1460 1131,1295 1162,1295 "/>
  <path id="12345678" class="fil5 str1" d="M1257 1443c-4,6 -8,11 -13,14 -5,3 -12,5 -19,5 -12,0 -21,-4 -28,-12 -7,-8 -10,-20 -10,-36l0 -69 31 0 0 69c0,8 1,14 4,18 3,4 7,5 12,5 5,0 9,-1 13,-2 3,-2 6,-4 9,-7l0 -83 31 0 0 114 -26 0 -3 -16z"/>
  <path id="123456789" class="fil5 str1" d="M1338 1345l1 15c4,-5 8,-10 14,-13 6,-3 12,-5 19,-5 7,0 14,2 19,5 5,3 9,8 12,15 4,-6 8,-11 14,-14 6,-3 12,-5 20,-5 11,0 20,4 27,12 7,8 10,20 10,36l0 69 -31 0 0 -69c0,-9 -1,-15 -4,-18 -3,-3 -7,-5 -13,-5 -4,0 -8,1 -11,3 -3,2 -6,5 -8,8 0,1 0,2 0,3 0,1 0,2 0,3l0 75 -31 0 0 -69c0,-8 -1,-14 -4,-18 -3,-3 -7,-5 -13,-5 -4,0 -8,1 -11,2 -3,2 -6,4 -8,7l0 83 -31 0 0 -114 29 0z"/>
  <path id="12345678910" class="fil5 str1" d="M1525 1345l1 16c4,-6 9,-10 14,-14 6,-3 12,-5 19,-5 12,0 21,4 27,11 6,7 10,19 10,34l0 71 -31 0 0 -71c0,-8 -2,-13 -5,-16 -3,-3 -8,-5 -14,-5 -4,0 -8,1 -11,2 -3,2 -6,4 -8,7l0 83 -31 0 0 -114 29 0z"/>
  <path id="1234567891011" class="fil5 str1" d="M1651 1460l-31 0 0 -114 31 0 0 114zm0 -142l-31 0 0 -23 31 0 0 23z"/>
 </g>
</svg>
